<?xml version="1.0" encoding="UTF-8" standalone="no"?>
<!-- Created with Inkscape (http://www.inkscape.org/) -->
<svg
   xmlns:dc="http://purl.org/dc/elements/1.1/"
   xmlns:cc="http://web.resource.org/cc/"
   xmlns:rdf="http://www.w3.org/1999/02/22-rdf-syntax-ns#"
   xmlns:svg="http://www.w3.org/2000/svg"
   xmlns="http://www.w3.org/2000/svg"
   xmlns:sodipodi="http://sodipodi.sourceforge.net/DTD/sodipodi-0.dtd"
   xmlns:inkscape="http://www.inkscape.org/namespaces/inkscape"
   width="250"
   height="100"
   id="svg2"
   sodipodi:version="0.32"
   inkscape:version="0.45.1"
   version="1.0"
   sodipodi:docbase="C:\Documents and Settings\Admin\Рабочий стол"
   sodipodi:docname="MyGUI_logo2.svg"
   inkscape:output_extension="org.inkscape.output.svg.inkscape"
   inkscape:export-filename="C:\Documents and Settings\Admin\Рабочий стол\MyGUI_logo.png"
   inkscape:export-xdpi="90"
   inkscape:export-ydpi="90">
  <defs
     id="defs4" />
  <sodipodi:namedview
     id="base"
     pagecolor="#ffffff"
     bordercolor="#666666"
     borderopacity="1.0"
     gridtolerance="50"
     guidetolerance="10"
     objecttolerance="10"
     inkscape:pageopacity="0.0"
     inkscape:pageshadow="2"
     inkscape:zoom="3.959798"
     inkscape:cx="106.50696"
     inkscape:cy="38.910405"
     inkscape:document-units="px"
     inkscape:current-layer="layer1"
     width="250px"
     height="100px"
     showgrid="false"
     inkscape:object-paths="false"
     inkscape:grid-bbox="false"
     inkscape:window-width="1280"
     inkscape:window-height="975"
     inkscape:window-x="-4"
     inkscape:window-y="-4"
     showborder="false"
     inkscape:showpageshadow="false"
     showguides="true" />
  <metadata
     id="metadata7">
    <rdf:RDF>
      <cc:Work
         rdf:about="">
        <dc:format>image/svg+xml</dc:format>
        <dc:type
           rdf:resource="http://purl.org/dc/dcmitype/StillImage" />
      </cc:Work>
    </rdf:RDF>
  </metadata>
  <g
     inkscape:label="Layer 1"
     inkscape:groupmode="layer"
     id="layer1">
    <path
       style="fill:#6976e9;fill-opacity:1;fill-rule:evenodd;stroke:#000000;stroke-width:4;stroke-linecap:butt;stroke-linejoin:miter;stroke-miterlimit:4;stroke-dasharray:none;stroke-opacity:1"
       d="M 1.9755773,67.080191 C 2.842779,60.699308 20.741922,48.564435 25.9667,48.139831 C 32.690089,47.593438 25.964082,74.399192 31.017463,73.898721 C 34.922031,73.688862 36.966637,55.848214 38.846145,43.341606 C 39.202701,40.969017 60.75459,38.905521 61.827116,42.331454 C 67.643755,60.911342 63.318688,80.171937 48.190056,96.627153 L 37.078378,96.374615 C 35.044917,96.3284 40.993597,91.131189 38.341069,87.788318 C 36.099028,84.962767 31.111978,96.287849 28.997158,94.606848 C 24.402362,90.954597 20.979072,83.78275 18.643094,84.252784 C 16.323101,84.719602 22.179709,97.757072 16.875327,95.869539 C 7.733119,92.616339 0.1407553,80.580838 1.9755773,67.080191 z "
       id="path2188"
       sodipodi:nodetypes="cscsscssssss" />
    <path
       style="fill:#6976e9;fill-opacity:1;fill-rule:evenodd;stroke:#000000;stroke-width:4;stroke-linecap:butt;stroke-linejoin:miter;stroke-miterlimit:4;stroke-dasharray:none;stroke-opacity:1"
       d="M 74.454023,59.504047 C 75.024453,58.948166 80.199265,73.519913 85.313162,74.656335 C 90.427059,75.792757 94.295595,64.026332 94.90961,64.55481 C 96.398469,64.705262 98.82626,70.186536 101.22307,78.696945 C 102.15667,82.011888 82.633003,94.918457 77.48448,97.637305 C 71.839651,100.61824 78.874871,95.415317 78.494633,89.051009 C 78.121911,82.812513 66.109521,79.741383 67.635493,76.171564 C 69.725433,71.282413 72.236289,58.225213 74.454023,59.504047 z "
       id="path3179"
       sodipodi:nodetypes="cscssscc" />
    <path
       style="fill:#6976e9;fill-opacity:1;fill-rule:evenodd;stroke:#000000;stroke-width:4;stroke-linecap:butt;stroke-linejoin:miter;stroke-miterlimit:4;stroke-dasharray:none;stroke-opacity:1"
       d="M 106.52637,56.978665 C 99.55964,67.174911 112.50436,95.841328 120.6685,97.384767 C 132.0134,99.529533 138.97752,89.934892 141.37663,87.283242 C 143.77574,84.631592 124.73572,85.019269 128.49718,86.27309 C 134.17929,88.167126 127.73957,94.669982 125.46672,93.344157 C 123.19388,92.018332 121.56407,88.209833 122.68881,82.232479 C 123.69896,76.864072 125.89879,73.979549 132.28525,73.898721 C 134.71511,73.867968 138.04821,80.161283 144.40708,77.939331 C 148.767,76.415869 148.72525,72.510441 148.70023,61.271814 C 148.67036,47.853903 123.62903,31.947857 106.52637,56.978665 z "
       id="path3181"
       sodipodi:nodetypes="csssssssss" />
    <path
       style="fill:#6976e9;fill-opacity:1;fill-rule:evenodd;stroke:#000000;stroke-width:4;stroke-linecap:butt;stroke-linejoin:miter;stroke-miterlimit:4;stroke-dasharray:none;stroke-opacity:1"
       d="M 154.50861,41.573839 C 155.46155,35.912711 178.10272,43.947208 177.99466,46.624602 C 177.80613,51.296098 172.97996,73.979556 180.01496,77.686793 C 185.51847,80.586979 181.7611,56.939639 188.34872,50.412674 C 189.24966,49.520025 201.43279,59.829869 202.23832,64.55481 C 204.01174,74.956971 195.481,91.657426 193.14694,93.596696 C 191.61544,94.382865 188.85227,84.869809 187.33857,89.556085 C 185.24503,96.037507 184.28025,99.425263 169.15582,97.384767 C 161.89428,96.405084 151.68937,58.322084 154.50861,41.573839 z "
       id="path3183"
       sodipodi:nodetypes="csssscsss" />
    <path
       style="fill:#6976e9;fill-opacity:1;fill-rule:evenodd;stroke:#000000;stroke-width:4;stroke-linecap:butt;stroke-linejoin:miter;stroke-miterlimit:4;stroke-opacity:1;stroke-dasharray:none"
       d="M 207.03654,52.180441 C 208.909,36.718185 233.59542,46.51904 233.55304,55.463436 C 233.47416,72.111577 205.32698,66.297543 207.03654,52.180441 z "
       id="path3185"
       sodipodi:nodetypes="css" />
    <path
       style="fill:#6976e9;fill-opacity:1;fill-rule:evenodd;stroke:#000000;stroke-width:4;stroke-linecap:butt;stroke-linejoin:miter;stroke-miterlimit:4;stroke-dasharray:none;stroke-opacity:1"
       d="M 212.84492,72.383491 C 211.79434,75.145022 215.95332,93.553301 219.41092,95.617 C 220.56703,96.307037 226.85256,87.268867 225.72437,77.434255 C 225.43336,74.897449 213.86831,71.683478 212.84492,72.383491 z "
       id="path3188"
       sodipodi:nodetypes="cssc" />
  </g>
</svg>
